<svg version="1.0" xmlns="http://www.w3.org/2000/svg"
 width="10" height="10" viewBox="-25 -15 100 80"
 preserveAspectRatio="xMidYMid meet">

<g transform="translate(-25,75) scale(0.100000,-0.100000)"
fill="#000000" stroke="none">
<path d="M416 735 c-22 -8 -51 -22 -65 -33 -39 -28 -87 -105 -95 -151 -6 -40
-7 -41 -46 -41 -22 0 -40 -4 -40 -8 0 -4 25 -32 55 -62 l55 -54 55 54 c30 30
55 58 55 62 0 4 -18 8 -40 8 -26 0 -40 4 -40 13 0 30 52 114 85 136 41 28 111
38 156 22 29 -10 36 -9 54 9 17 18 18 22 5 30 -47 31 -132 37 -194 15z"/>
<path d="M647 572 c-26 -26 -47 -51 -47 -55 0 -4 15 -7 34 -7 19 0 37 -4 40
-8 10 -17 -15 -83 -45 -117 -39 -44 -86 -59 -164 -52 -53 5 -65 3 -80 -13 -16
-18 -15 -19 17 -36 54 -29 146 -23 210 13 60 34 112 107 123 174 7 38 8 39 48
39 l41 0 -54 55 c-30 30 -59 55 -65 55 -6 0 -32 -22 -58 -48z"/>
</g>
</svg>