<svg width="845" height="827" viewBox="0 0 845 827" fill="none" xmlns="http://www.w3.org/2000/svg">
<g clip-path="url(#clip0_3_22)" filter="url(#filter0_f_3_22)">
<mask id="mask0_3_22" style="mask-type:luminance" maskUnits="userSpaceOnUse" x="20" y="2" width="805" height="805">
<path d="M680.1 2H164.9C84.8739 2 20 66.8739 20 146.9V662.1C20 742.126 84.8739 807 164.9 807H680.1C760.126 807 825 742.126 825 662.1V146.9C825 66.8739 760.126 2 680.1 2Z" fill="white"/>
</mask>
<g mask="url(#mask0_3_22)">
<mask id="mask1_3_22" style="mask-type:luminance" maskUnits="userSpaceOnUse" x="36" y="20" width="773" height="516">
<path d="M808.8 20H36V535.2H808.8V20Z" fill="white"/>
</mask>
<g mask="url(#mask1_3_22)">
<path d="M732.31 375.575C732.31 489.039 597.355 535.147 429.791 535.147C262.226 535.147 125.307 489.039 125.307 375.575C125.307 262.111 261.244 170.297 428.808 170.297C596.373 170.297 732.31 262.311 732.31 375.575Z" fill="#4BAF74"/>
<path d="M701.513 128.544C701.513 68.8049 653.975 20.2919 595.435 20.2919C562.433 20.2919 532.967 35.7279 513.519 59.7839C487 53.7699 458.712 50.3619 429.442 50.3619C400.173 50.3619 371.885 53.5694 345.365 59.7839C325.721 35.7279 296.255 20.2919 263.449 20.2919C204.91 20.2919 157.371 68.8049 157.371 128.544C157.371 148.19 162.479 166.432 171.318 182.269C162.871 200.712 158.353 220.358 158.353 240.805C158.353 346.051 279.754 431.249 429.442 431.249C579.131 431.249 700.531 346.051 700.531 240.805C700.531 220.358 696.013 200.712 687.566 182.269C696.406 166.432 701.513 148.19 701.513 128.544Z" fill="#32DA6D"/>
<path d="M254.9 188.766C290.702 188.766 319.725 159.148 319.725 122.612C319.725 86.0763 290.702 56.4581 254.9 56.4581C219.098 56.4581 190.074 86.0763 190.074 122.612C190.074 159.148 219.098 188.766 254.9 188.766Z" fill="white"/>
<path d="M600.798 188.766C636.6 188.766 665.624 159.148 665.624 122.612C665.624 86.0763 636.6 56.4581 600.798 56.4581C564.996 56.4581 535.973 86.0763 535.973 122.612C535.973 159.148 564.996 188.766 600.798 188.766Z" fill="white"/>
<path d="M220.288 527.351C234.235 527.351 245.236 514.922 243.664 500.89C237.967 451.174 213.805 343.523 107.53 278.772C-33.9074 192.571 78.0641 489.262 78.0641 489.262L48.7943 506.503C38.9723 512.316 43.0975 527.351 54.2947 527.351H220.288Z" fill="#32DA6D"/>
<path d="M642.343 527.351C629.771 527.351 619.949 514.922 621.324 500.89C626.235 451.374 648.236 343.523 744.1 278.772C871.983 192.571 770.816 489.262 770.816 489.262L797.335 506.503C806.175 512.316 802.443 527.351 792.424 527.351H642.343Z" fill="#32DA6D"/>
<path d="M255.017 134.288C261.526 134.288 266.803 128.903 266.803 122.26C266.803 115.617 261.526 110.232 255.017 110.232C248.507 110.232 243.23 115.617 243.23 122.26C243.23 128.903 248.507 134.288 255.017 134.288Z" fill="#0D0D0D"/>
<path d="M600.589 134.288C607.099 134.288 612.376 128.903 612.376 122.26C612.376 115.617 607.099 110.232 600.589 110.232C594.08 110.232 588.803 115.617 588.803 122.26C588.803 128.903 594.08 134.288 600.589 134.288Z" fill="#0D0D0D"/>
</g>
<path d="M825 588H20V898H825V588Z" fill="#AC4BFF"/>
</g>
</g>
<path d="M291.45 462.8C282.25 462.8 274.45 461.25 268.05 458.15C261.65 454.95 256.2 450.85 251.7 445.85L266.7 430.7C273.8 438.7 282.55 442.7 292.95 442.7C298.55 442.7 302.7 441.55 305.4 439.25C308.1 436.95 309.45 433.9 309.45 430.1C309.45 427.2 308.65 424.8 307.05 422.9C305.45 420.9 302.2 419.55 297.3 418.85L286.95 417.5C275.85 416.1 267.7 412.75 262.5 407.45C257.4 402.15 254.85 395.1 254.85 386.3C254.85 381.6 255.75 377.3 257.55 373.4C259.35 369.5 261.9 366.15 265.2 363.35C268.6 360.55 272.7 358.4 277.5 356.9C282.4 355.3 287.95 354.5 294.15 354.5C302.05 354.5 309 355.75 315 358.25C321 360.75 326.15 364.4 330.45 369.2L315.3 384.5C312.8 381.6 309.75 379.25 306.15 377.45C302.65 375.55 298.2 374.6 292.8 374.6C287.7 374.6 283.9 375.5 281.4 377.3C278.9 379.1 277.65 381.6 277.65 384.8C277.65 388.4 278.6 391 280.5 392.6C282.5 394.2 285.7 395.35 290.1 396.05L300.45 397.7C311.25 399.4 319.25 402.75 324.45 407.75C329.65 412.65 332.25 419.65 332.25 428.75C332.25 433.75 331.35 438.35 329.55 442.55C327.75 446.75 325.1 450.35 321.6 453.35C318.2 456.35 313.95 458.7 308.85 460.4C303.75 462 297.95 462.8 291.45 462.8ZM381.904 462.8C376.104 462.8 370.904 461.85 366.304 459.95C361.804 458.05 357.954 455.3 354.754 451.7C351.654 448.1 349.254 443.75 347.554 438.65C345.854 433.55 345.004 427.85 345.004 421.55C345.004 415.25 345.854 409.55 347.554 404.45C349.254 399.35 351.654 395.05 354.754 391.55C357.954 387.95 361.804 385.2 366.304 383.3C370.904 381.4 376.104 380.45 381.904 380.45C387.704 380.45 392.854 381.4 397.354 383.3C401.954 385.2 405.804 387.95 408.904 391.55C412.104 395.05 414.554 399.35 416.254 404.45C417.954 409.55 418.804 415.25 418.804 421.55C418.804 427.85 417.954 433.55 416.254 438.65C414.554 443.75 412.104 448.1 408.904 451.7C405.804 455.3 401.954 458.05 397.354 459.95C392.854 461.85 387.704 462.8 381.904 462.8ZM381.904 445.25C386.304 445.25 389.704 443.9 392.104 441.2C394.504 438.5 395.704 434.65 395.704 429.65V413.6C395.704 408.6 394.504 404.75 392.104 402.05C389.704 399.35 386.304 398 381.904 398C377.504 398 374.104 399.35 371.704 402.05C369.304 404.75 368.104 408.6 368.104 413.6V429.65C368.104 434.65 369.304 438.5 371.704 441.2C374.104 443.9 377.504 445.25 381.904 445.25ZM466.571 462.8C460.771 462.8 455.571 461.85 450.971 459.95C446.471 458.05 442.621 455.3 439.421 451.7C436.321 448.1 433.921 443.75 432.221 438.65C430.521 433.55 429.671 427.85 429.671 421.55C429.671 415.25 430.521 409.55 432.221 404.45C433.921 399.35 436.321 395.05 439.421 391.55C442.621 387.95 446.471 385.2 450.971 383.3C455.571 381.4 460.771 380.45 466.571 380.45C472.371 380.45 477.521 381.4 482.021 383.3C486.621 385.2 490.471 387.95 493.571 391.55C496.771 395.05 499.221 399.35 500.921 404.45C502.621 409.55 503.471 415.25 503.471 421.55C503.471 427.85 502.621 433.55 500.921 438.65C499.221 443.75 496.771 448.1 493.571 451.7C490.471 455.3 486.621 458.05 482.021 459.95C477.521 461.85 472.371 462.8 466.571 462.8ZM466.571 445.25C470.971 445.25 474.371 443.9 476.771 441.2C479.171 438.5 480.371 434.65 480.371 429.65V413.6C480.371 408.6 479.171 404.75 476.771 402.05C474.371 399.35 470.971 398 466.571 398C462.171 398 458.771 399.35 456.371 402.05C453.971 404.75 452.771 408.6 452.771 413.6V429.65C452.771 434.65 453.971 438.5 456.371 441.2C458.771 443.9 462.171 445.25 466.571 445.25ZM519.289 461V382.25H541.489V395.6H542.389C543.789 391.5 546.239 387.95 549.739 384.95C553.239 381.95 558.089 380.45 564.289 380.45C572.389 380.45 578.489 383.15 582.589 388.55C586.789 393.95 588.889 401.65 588.889 411.65V461H566.689V413.45C566.689 408.35 565.889 404.6 564.289 402.2C562.689 399.7 559.839 398.45 555.739 398.45C553.939 398.45 552.189 398.7 550.489 399.2C548.789 399.6 547.239 400.3 545.839 401.3C544.539 402.3 543.489 403.55 542.689 405.05C541.889 406.45 541.489 408.1 541.489 410V461H519.289Z" fill="white"/>
<defs>
<filter id="filter0_f_3_22" x="0" y="-18" width="845" height="845" filterUnits="userSpaceOnUse" color-interpolation-filters="sRGB">
<feFlood flood-opacity="0" result="BackgroundImageFix"/>
<feBlend mode="normal" in="SourceGraphic" in2="BackgroundImageFix" result="shape"/>
<feGaussianBlur stdDeviation="10" result="effect1_foregroundBlur_3_22"/>
</filter>
<clipPath id="clip0_3_22">
<rect width="805" height="805" fill="white" transform="translate(20 2)"/>
</clipPath>
</defs>
</svg>
